<svg height="512pt" viewBox="0 0 512 512" width="512pt" xmlns="http://www.w3.org/2000/svg" xmlns:xlink="http://www.w3.org/1999/xlink"><linearGradient id="a" gradientUnits="userSpaceOnUse" x1="0" x2="512" y1="256" y2="256"><stop offset="0" stop-color="#00f38d"/><stop offset="1" stop-color="#009eff"/></linearGradient><path d="m512 256c0 141.386719-114.613281 256-256 256s-256-114.613281-256-256 114.613281-256 256-256 256 114.613281 256 256zm0 0" fill="url(#a)"/><g fill="#fff"><path d="m224.105469 249.5625c0 7.09375-5.75 12.847656-12.84375 12.847656-7.097657 0-12.847657-5.753906-12.847657-12.847656s5.75-12.847656 12.847657-12.847656c7.09375 0 12.84375 5.753906 12.84375 12.847656zm0 0"/><path d="m359.140625 234.890625 28.484375-28.480469-21.214844-21.214844-64.695312 64.695313 64.695312 64.695313 21.214844-21.214844-28.484375-28.480469h72.339844v-30zm0 0"/><path d="m330.175781 313.039062-26.351562-26.351562v103.683594h-25.1875v-255.769532h25.1875v78.496094l26.351562-26.355468v-78.496094h-51.539062v-28.617188l-188.117188 28.21875v312.523438h339.136719v-30h-99.480469zm-209.65625 77.332032v-256.6875l128.117188-19.21875v275.90625zm0 0"/></g></svg>